<svg width="40" height="41" viewBox="0 0 40 41" fill="none" xmlns="http://www.w3.org/2000/svg">
  <g clip-path="url(#clip0_40_216)">
    <path fill-rule="evenodd" clip-rule="evenodd" d="M1.39155 2.30498C1.16225 2.41799 0.889051 2.65314 0.733716 2.87101L0.468094 3.24367V22.8956L0.733804 23.2641C1.25218 23.9832 1.23155 23.979 4.49835 24.0277C7.1134 24.0666 7.39727 24.085 7.53982 24.224C7.68096 24.3616 7.70159 24.6236 7.74117 26.7759L7.78525 29.1744L10.0774 27.1086C11.338 25.9724 12.6383 24.8143 12.9669 24.5352L13.5641 24.0277H17.3648H18.5566H20.5293C26.2394 24.0277 27.5466 24.0064 27.7845 23.9095C28.2446 23.7221 28.6849 23.2911 28.8893 22.8281L29.0778 22.4007L29.0648 17.0154L29.0618 15.7813L29.0315 3.24367L28.767 2.87763C28.6215 2.67626 28.3277 2.42152 28.114 2.31159L27.7254 2.1116H1.78377L1.39155 2.30498ZM4.61154 7.99886H24.888L24.9401 6.8386H4.55944L4.61154 7.99886ZM4.56746 13.3705H24.9321V12.1672H4.56746V13.3705ZM4.62662 17.5527C4.59409 17.5844 4.56746 17.8553 4.56746 18.1548V18.6991H24.9401L24.888 17.5388L14.7869 17.517C9.23123 17.5049 4.65915 17.521 4.62662 17.5527Z" fill="#72A62A" />
    <path fill-rule="evenodd" clip-rule="evenodd" d="M18.5566 24.3712L18.563 25.3169L18.5812 27.9878C18.582 28.1052 18.5828 28.219 18.5835 28.3293C18.6025 31.1782 18.606 31.7081 18.8633 32.0539C18.9221 32.133 18.9941 32.2024 19.0826 32.2876C19.0977 32.3021 19.1133 32.3171 19.1293 32.3327C19.139 32.3421 19.1484 32.3513 19.1576 32.3603C19.2165 32.4176 19.2674 32.4673 19.3236 32.5103C19.6882 32.7897 20.2725 32.7897 24.6489 32.7895L24.9728 32.7895H30.0273L30.4389 33.1113C30.6652 33.2882 31.6349 34.1319 32.5936 34.9861L34.3368 36.5392L34.3793 34.8306C34.4165 33.3342 34.4407 33.1038 34.5734 32.9761C34.707 32.8476 34.9506 32.8256 36.6284 32.7895L38.5318 32.7486L38.8937 32.5035C39.0927 32.3686 39.3447 32.0962 39.4534 31.8981L39.6513 31.5378V24.9279C39.6513 19.1467 39.6348 18.2799 39.5197 18.0152C39.3521 17.6298 39.097 17.3675 38.6981 17.171C38.4001 17.0241 38.1414 17.0154 34.0471 17.0154H30.314H29.7116H29.0648L29.0778 22.4007L28.8893 22.8281C28.6849 23.2911 28.2446 23.7221 27.7845 23.9095C27.5466 24.0064 26.2394 24.0277 20.5293 24.0277H18.5566V24.3712Z" fill="#BD2645" />
  </g>
  <defs>
    <clipPath id="clip0_40_216">
      <rect width="40" height="40" fill="white" transform="translate(0 0.0136719)" />
    </clipPath>
  </defs>
</svg>