<svg width="40" height="41" viewBox="0 0 40 41" fill="none" xmlns="http://www.w3.org/2000/svg">
  <g clip-path="url(#clip0_40_227)">
    <path d="M22.3303 19.2433L22.3847 37.4881L26.9081 37.5446V19.2433H22.3303Z" fill="#72A62A" />
    <path d="M33.5902 11.1201L31.5982 13.2314L32.1001 13.2587C32.8894 13.3017 33.066 13.3698 33.2388 13.6982C33.3805 13.9674 33.4004 15.4546 33.4004 25.7728V37.5404H37.977V25.685C37.977 12.0068 37.8554 13.3758 39.0778 13.2837L39.7719 13.2314L37.7509 11.1142C36.6393 9.94964 35.6967 8.99966 35.6561 9.0029C35.6155 9.00625 34.6859 9.95895 33.5902 11.1201Z" fill="#72A62A" />
    <path d="M0.300072 30.5352V37.5404H4.87665V30.5352H0.300072Z" fill="#72A62A" />
    <path d="M11.369 24.8893V37.5446L15.8924 37.4881L15.9473 24.8893H11.369Z" fill="#72A62A" />
    <path d="M24.1221 3.79534C24.2384 3.98228 24.4409 4.33902 24.572 4.58828C24.6001 4.64167 24.6295 4.68984 24.657 4.7349C24.7135 4.8274 24.7621 4.90684 24.7745 4.99158C24.8503 5.50654 23.5946 6.21747 14.7085 11.2485C13.9958 11.6521 13.234 12.0834 12.4199 12.5446C5.78323 16.3044 0.310716 19.4175 0.258564 19.4625C0.205986 19.5079 0.434709 20.0143 0.772949 20.6011L1.38206 21.6578L1.82556 21.4052C16.935 12.7981 25.7792 7.84684 26.0443 7.84684C26.3909 7.84684 26.7695 8.2156 27.1245 8.89929C27.2379 9.1177 27.3712 9.32106 27.4208 9.35107C27.5115 9.40617 29.7023 4.28371 29.6219 4.20467C29.5705 4.15417 24.5172 3.46474 24.1587 3.4593L23.9106 3.45553L24.1221 3.79534Z" fill="#BD2645" />
  </g>
  <defs>
    <clipPath id="clip0_40_227">
      <rect width="40" height="40" fill="white" transform="translate(0 0.0136719)" />
    </clipPath>
  </defs>
</svg>