<svg width="40" height="41" viewBox="0 0 40 41" fill="none" xmlns="http://www.w3.org/2000/svg">
  <path fill-rule="evenodd" clip-rule="evenodd" d="M34.274 0.116253C35.157 0.262007 35.7398 0.444668 36.4576 0.800608C38.2398 1.68428 39.3774 3.26107 39.8629 5.52088C40.0133 6.22056 39.9891 8.54644 39.8218 9.46968C39.6704 10.3057 39.2342 12.0197 39.0032 12.6867L38.8505 13.1279L39.1248 13.3905C40.4955 14.7024 40.1698 16.9278 38.4853 17.7589C38.1543 17.9223 37.9828 17.9515 37.3493 17.9525L36.6033 17.9537L36.0235 18.9312C35.7047 19.4688 35.4338 19.9457 35.4216 19.9909C35.4093 20.0363 35.6796 20.5354 36.0221 21.1001C39.3247 26.5445 40.6663 31.7375 39.6863 35.2834C39.4762 36.0433 38.9792 37.0201 38.4968 37.6215C37.7342 38.5718 36.3126 39.4553 34.9759 39.8097C33.4012 40.2272 30.882 40.0564 28.4492 39.3673L27.4595 39.087L27.1171 39.3683C26.5339 39.8476 26.1006 40.0029 25.3444 40.0037C24.7756 40.0044 24.6185 39.9735 24.2378 39.786C23.5928 39.4685 23.0512 38.844 22.8465 38.1822C22.7575 37.8943 22.6938 37.5052 22.7049 37.3175C22.7233 37.0092 22.703 36.9649 22.4946 36.8581C22.3677 36.7931 21.7602 36.4389 21.1446 36.0712C20.1186 35.4583 20.0113 35.4114 19.8578 35.509C15.9722 37.9783 12.2259 39.5063 9.00598 39.9352C7.72667 40.1056 5.89045 40.0484 5.0676 39.8126C3.75257 39.4356 2.32945 38.5495 1.62312 37.6677C0.830997 36.679 0.154373 34.9433 0.154373 33.9003C0.154373 33.7526 0.119282 33.6317 0.0763855 33.6317C0.0279579 33.6317 0.00136185 33.2394 0.00619507 32.5956C0.010952 31.9554 0.0377846 31.6342 0.0763855 31.755C0.128559 31.9184 0.140495 31.8928 0.149071 31.5986C0.165604 31.0279 0.422497 29.6826 0.73468 28.5313L1.02565 27.458L0.747471 27.1176C0.271355 26.535 0.11694 26.1003 0.11694 25.3431C0.11694 24.5397 0.276974 24.1319 0.821404 23.5483C1.31288 23.0214 1.90263 22.7463 2.60693 22.7155C3.11112 22.6933 3.15659 22.6764 3.26008 22.473C3.3213 22.3528 3.66819 21.7529 4.03099 21.14C4.39371 20.527 4.67883 19.9992 4.66464 19.9671C4.65037 19.9349 4.34629 19.42 3.98895 18.8229C1.92719 15.3776 0.582916 11.9462 0.232597 9.2351C0.179878 8.82654 0.105553 8.39021 0.0674973 8.26557C-0.0212555 7.9743 -0.0230484 6.34192 0.0654678 6.34192C0.102356 6.34192 0.151878 6.15448 0.17543 5.92537C0.294205 4.77123 0.906567 3.26701 1.61251 2.39499C2.50867 1.28823 3.86277 0.521455 5.57452 0.151753C6.27235 0.000994731 8.5921 0.0252349 9.5129 0.192961C10.3467 0.344736 12.0562 0.782076 12.7215 1.01369L13.1615 1.16687L13.4234 0.891783C14.7318 -0.482558 16.9513 -0.155941 17.7802 1.53297C17.9432 1.86491 17.9723 2.03686 17.9733 2.67203L17.9746 3.42003L18.9494 4.00133C19.4856 4.32099 19.9598 4.59232 20.0033 4.60429C20.0468 4.61625 20.575 4.3292 21.1772 3.96653C24.4939 1.96867 27.5392 0.733048 30.4526 0.202892C31.3991 0.0307085 33.4713 -0.0162862 34.274 0.116253ZM33.7671 1.38957C35.8818 1.72353 37.2418 2.59493 37.9675 4.08101C38.3449 4.8538 38.4962 5.40374 38.6108 6.42011C38.7574 7.72056 38.5419 9.52215 38.0251 11.3163C37.6137 12.7443 37.6802 12.6438 37.1074 12.7036C36.1749 12.8009 35.3433 13.3914 34.9442 14.2395C34.7732 14.6031 34.7419 14.7785 34.7419 15.3733C34.7419 15.9919 34.7686 16.1291 34.9622 16.5072C35.0833 16.7437 35.2487 17.0084 35.3296 17.0954C35.4747 17.2514 35.4707 17.264 35.0449 17.9941C34.8074 18.4013 34.6026 18.7451 34.5898 18.7579C34.5771 18.7707 34.1095 18.1707 33.551 17.4244C30.3027 13.0846 26.7366 9.53044 22.3537 6.26482L21.2735 5.46004L21.6518 5.22319C24.828 3.23409 28.5813 1.7735 31.4254 1.41967C32.057 1.34109 33.3545 1.32443 33.7671 1.38957ZM15.9546 1.48184C16.386 1.68451 16.6299 2.0464 16.6711 2.54465C16.7134 3.05628 16.5557 3.44099 16.1886 3.72179C15.6369 4.14372 14.8785 4.06193 14.398 3.52865C13.457 2.48428 14.6762 0.881148 15.9546 1.48184ZM8.49906 1.41693C9.35638 1.50131 10.3427 1.70133 11.3723 1.99948C12.7271 2.39194 12.7104 2.38326 12.7104 2.69572C12.7104 3.37054 13.1435 4.26093 13.7001 4.73057C14.1829 5.13788 14.635 5.28543 15.401 5.2859C16.0217 5.28622 16.1546 5.26002 16.5503 5.05898C16.7963 4.93395 17.0559 4.76716 17.1271 4.68834C17.2518 4.55017 17.2721 4.55393 17.6935 4.79336C17.9339 4.92996 18.2851 5.13702 18.474 5.25353L18.8175 5.46536L18.2841 5.84499C14.0703 8.84436 9.70007 13.1356 6.6389 17.2795C6.1822 17.8978 5.73783 18.4898 5.65149 18.595L5.4945 18.7865L4.93416 17.8228C2.53284 13.6932 1.28239 9.79348 1.4283 6.88927C1.62694 2.935 4.14259 0.98804 8.49906 1.41693ZM21.171 7.05645C23.5813 8.80112 25.3188 10.2908 27.5347 12.5126C29.7637 14.7476 31.3557 16.6188 33.0404 18.9842L33.7823 20.0259L33.021 21.0947C29.807 25.6075 25.605 29.8215 21.1143 33.0353L20.0428 33.8022L19.3986 33.3516C14.7747 30.1172 10.3712 25.7418 7.05808 21.09L6.30019 20.0259L7.05808 18.9618C10.0077 14.8203 13.7047 11.0036 17.7796 7.89321C18.7304 7.16741 19.9939 6.26208 20.0515 6.26536C20.0673 6.26622 20.5711 6.62224 21.171 7.05645ZM39.9763 7.31934C39.9761 7.83542 39.9635 8.03638 39.9483 7.76591C39.933 7.49544 39.9331 7.07319 39.9485 6.82758C39.964 6.58197 39.9765 6.80326 39.9763 7.31934ZM37.8705 14.1545C38.5681 14.4722 38.8539 15.2381 38.5272 15.9148C38.3023 16.3806 37.9802 16.605 37.4763 16.6468C36.7226 16.7095 36.1285 16.2465 36.0484 15.5339C35.9946 15.0543 36.0658 14.8327 36.3893 14.4737C36.8094 14.0075 37.3104 13.8995 37.8705 14.1545ZM35.151 22.2383C37.1568 25.7053 38.2763 28.721 38.6097 31.5553C38.8818 33.8685 38.3312 35.9419 37.1232 37.1531C36.4947 37.7833 35.5092 38.303 34.508 38.5323C33.7503 38.7059 31.7792 38.7259 30.8815 38.5693C30.201 38.4505 28.8959 38.1364 28.376 37.9661L28.0152 37.848L27.9799 37.206C27.953 36.7165 27.8967 36.4711 27.7429 36.173C27.4729 35.6496 26.9645 35.1708 26.4092 34.9166C25.9994 34.7291 25.8848 34.7115 25.2783 34.7423C24.497 34.782 24.0907 34.9507 23.5756 35.4493L23.2496 35.7648L22.3668 35.2469C21.8813 34.962 21.4372 34.698 21.38 34.6603C21.3049 34.6108 21.6527 34.3092 22.6278 33.5779C27.0043 30.2955 30.9162 26.3247 33.9968 22.0375C34.268 21.6602 34.5144 21.3363 34.5443 21.3177C34.5743 21.2991 34.8473 21.7134 35.151 22.2383ZM6.13088 22.0995C9.28135 26.4206 13.1633 30.3741 17.2727 33.4464C17.8732 33.8954 18.4648 34.3407 18.5874 34.4359L18.8103 34.6091L17.8465 35.172C13.7438 37.5681 9.84185 38.8315 6.9783 38.691C5.83617 38.635 5.1009 38.4606 4.22057 38.0371C3.20806 37.5499 2.56404 36.9043 2.07701 35.8884C1.57274 34.8363 1.44039 34.1678 1.44468 32.6933C1.44881 31.2317 1.67841 29.8257 2.14836 28.3827L2.2662 28.021L2.90648 27.9856C3.66897 27.9434 4.1539 27.7268 4.64997 27.2068C5.21445 26.6151 5.34056 26.2819 5.34056 25.3822C5.34056 24.4848 5.21281 24.1453 4.65855 23.5696L4.34387 23.2427L4.86046 22.3576C5.14457 21.8708 5.40864 21.4242 5.44724 21.3653C5.49926 21.2858 5.67575 21.4753 6.13088 22.0995ZM3.14879 24.095C3.41879 24.176 3.78844 24.5132 3.95238 24.8281C4.1344 25.1777 4.05485 25.8109 3.78408 26.1668C3.50036 26.5398 3.11845 26.6983 2.60615 26.6557C2.1075 26.6142 1.74595 26.3681 1.55074 25.9373C1.21774 25.202 1.48118 24.504 2.22105 24.1616C2.55788 24.0057 2.79457 23.9887 3.14879 24.095ZM39.9755 32.6933C39.9755 33.2739 39.9633 33.5114 39.9482 33.2212C39.9332 32.9309 39.9332 32.4558 39.9482 32.1655C39.9633 31.8753 39.9755 32.1128 39.9755 32.6933ZM25.9292 36.1789C26.4411 36.4466 26.6702 36.8209 26.6702 37.3902C26.6702 38.4974 25.3514 39.1181 24.5319 38.3967C23.7933 37.7464 23.9317 36.6224 24.8062 36.169C25.0924 36.0206 25.6355 36.0254 25.9292 36.1789Z" fill="#BD2645" />
  <path d="M3.14879 24.095C3.41879 24.176 3.78844 24.5132 3.95238 24.8281C4.1344 25.1777 4.05485 25.8109 3.78408 26.1668C3.50036 26.5398 3.11845 26.6983 2.60615 26.6557C2.1075 26.6142 1.74595 26.3681 1.55074 25.9373C1.21774 25.202 1.48118 24.504 2.22105 24.1616C2.55788 24.0057 2.79457 23.9887 3.14879 24.095Z" fill="#BD2645" />
  <path d="M25.9292 36.1789C26.4411 36.4466 26.6702 36.8209 26.6702 37.3902C26.6702 38.4974 25.3514 39.1181 24.5319 38.3967C23.7933 37.7464 23.9317 36.6224 24.8062 36.169C25.0924 36.0206 25.6355 36.0254 25.9292 36.1789Z" fill="#BD2645" />
  <path d="M37.8705 14.1545C38.5681 14.4722 38.8539 15.2381 38.5272 15.9148C38.3023 16.3806 37.9802 16.605 37.4763 16.6468C36.7226 16.7095 36.1285 16.2465 36.0484 15.5339C35.9946 15.0543 36.0658 14.8327 36.3893 14.4737C36.8094 14.0075 37.3104 13.8995 37.8705 14.1545Z" fill="#BD2645" />
  <path d="M15.9546 1.48184C16.386 1.68451 16.6299 2.0464 16.6711 2.54465C16.7134 3.05628 16.5557 3.44099 16.1886 3.72179C15.6369 4.14372 14.8785 4.06193 14.398 3.52865C13.457 2.48428 14.6762 0.881148 15.9546 1.48184Z" fill="#BD2645" />
  <path fill-rule="evenodd" clip-rule="evenodd" d="M18.4238 11.4604C18.3118 11.5841 18.0725 11.9973 17.8922 12.3784C17.6423 12.9067 17.473 13.1092 17.1796 13.2307C16.7849 13.3941 16.7536 13.3874 15.0996 12.7877C14.9536 12.7348 13.0372 14.5125 12.8327 14.8903C12.7608 15.0233 12.826 15.3662 13.0374 15.9656C13.4502 17.1359 13.3437 17.4318 12.3262 17.9406L12.297 17.9552L12.2407 17.9833C11.7584 18.224 11.4993 18.3533 11.3602 18.5623C11.1987 18.805 11.1989 19.1552 11.1993 19.912C11.1993 19.9494 11.1993 19.9878 11.1993 20.0273C11.1993 20.9395 11.2481 21.4583 11.346 21.5873C11.4267 21.6935 11.8458 21.9374 12.2775 22.1294C12.9795 22.4414 13.0763 22.5255 13.1947 22.9262C13.3102 23.3174 13.2888 23.4747 13.0251 24.1702C12.7523 24.8897 12.7392 24.997 12.8887 25.2844C13.1098 25.7095 14.7655 27.303 14.9861 27.303C15.0821 27.303 15.5154 27.1696 15.9489 27.0064C16.6559 26.7405 16.7805 26.7254 17.1558 26.8598C17.5139 26.9881 17.6293 27.1302 17.955 27.8436C18.1643 28.302 18.4238 28.7111 18.5317 28.7525C18.9012 28.8942 21.351 28.8364 21.5557 28.6811C21.662 28.6005 21.9027 28.189 22.0904 27.7668C22.393 27.0866 22.4839 26.9823 22.8877 26.8514C23.3001 26.7177 23.4125 26.7321 24.0743 27.0034C24.4764 27.1682 24.892 27.303 24.9979 27.303C25.2268 27.303 27.1221 25.4853 27.2223 25.1697C27.2606 25.0492 27.1518 24.5843 26.9807 24.1366C26.6977 23.3964 26.6834 23.284 26.8234 22.8971C26.954 22.5361 27.0931 22.4196 27.7416 22.1277C28.162 21.9384 28.572 21.696 28.6526 21.5889C28.8171 21.3704 28.8605 18.7848 28.7039 18.5383C28.6533 18.4588 28.2369 18.2113 27.7784 17.9882C27.0643 17.6408 26.9249 17.5222 26.8054 17.1606C26.682 16.7869 26.7015 16.6499 26.9741 15.969C27.1687 15.4831 27.2528 15.1066 27.2022 14.9475C27.1003 14.6261 25.6725 13.1407 25.2597 12.9264C24.9788 12.7807 24.8575 12.7961 24.0757 13.0772C23.2828 13.3621 23.1699 13.376 22.8177 13.2302C22.5048 13.1006 22.3573 12.9089 22.0469 12.2279C21.8358 11.7648 21.5747 11.3519 21.4669 11.3105C21.359 11.2692 20.6761 11.2354 19.9492 11.2354C18.7952 11.2354 18.6018 11.2639 18.4238 11.4604ZM18.6357 14.2261L17.8064 14.5486C16.8072 14.9371 16.6806 14.9417 15.8998 14.6174L15.2891 14.3636L14.3399 15.3123L14.5883 15.9758C14.9023 16.8147 14.9011 16.8456 14.5168 17.8293C14.202 18.6349 14.1844 18.6543 13.4021 19.048L12.6073 19.448V20.68L13.3993 21.0527C14.1544 21.4081 14.2041 21.4571 14.4667 22.1066C14.878 23.1239 14.8936 23.3594 14.5977 24.0883L14.332 24.7428L15.2895 25.6999L15.9535 25.4459C16.6563 25.1771 17.0645 25.1283 17.2478 25.2909C17.3092 25.3454 17.6588 25.5083 18.025 25.6528C18.6626 25.9046 18.7042 25.9472 19.0106 26.6679L19.3305 27.4203H20.6744L20.9364 26.8046C21.2926 25.9673 21.4032 25.8644 22.3606 25.4793L23.1926 25.1445L24.7177 25.6912L25.6586 24.7507L25.4102 24.0873C25.2736 23.7224 25.1619 23.3302 25.1619 23.2157C25.1619 23.0281 25.3794 22.4858 25.7804 21.6735C25.8697 21.4927 26.2063 21.2486 26.6582 21.0369L27.3913 20.6935L27.3901 19.3865L26.5987 19.0225C25.8367 18.6721 25.7971 18.6328 25.5334 17.967C25.1207 16.9248 25.1124 16.8034 25.4006 16.0331L25.6672 15.3209L24.7333 14.3874L24.0969 14.6293C23.2816 14.939 23.1856 14.935 22.1921 14.5486L21.3628 14.2261L20.6581 12.6427L19.3539 12.6439L18.6357 14.2261ZM18.5876 15.7484C17.3153 16.1562 16.0751 17.4328 15.7007 18.7202C15.4274 19.66 15.52 21.0843 15.908 21.908C16.7807 23.761 18.8386 24.8643 20.7287 24.4926C24.3885 23.7729 25.7708 19.456 23.1729 16.8593C22.3066 15.9935 21.4881 15.6527 20.1753 15.6113C19.4877 15.5896 18.9338 15.6374 18.5876 15.7484ZM18.7673 17.2582C16.4145 18.3556 16.3515 21.6496 18.6613 22.795C18.9992 22.9626 19.3653 23.0222 20.0579 23.0222C20.8665 23.0222 21.0713 22.9784 21.5356 22.7056C23.2365 21.706 23.5637 19.3272 22.1939 17.9194C21.3026 17.0034 19.8956 16.7319 18.7673 17.2582Z" fill="#72A62A" />
  <path d="M18.7673 17.2582C16.4145 18.3556 16.3515 21.6496 18.6613 22.795C18.9992 22.9626 19.3653 23.0222 20.0579 23.0222C20.8665 23.0222 21.0713 22.9784 21.5356 22.7056C23.2365 21.706 23.5637 19.3272 22.1939 17.9194C21.3026 17.0034 19.8956 16.7319 18.7673 17.2582Z" fill="white" />
  <path fill-rule="evenodd" clip-rule="evenodd" d="M18.6357 14.2261L17.8064 14.5486C16.8072 14.9371 16.6806 14.9417 15.8998 14.6174L15.2891 14.3636L14.3399 15.3123L14.5883 15.9758C14.9023 16.8147 14.9011 16.8456 14.5168 17.8293C14.202 18.6349 14.1844 18.6543 13.4021 19.048L12.6073 19.448V20.68L13.3993 21.0527C14.1544 21.4081 14.2041 21.4571 14.4667 22.1066C14.878 23.1239 14.8936 23.3594 14.5977 24.0883L14.332 24.7428L15.2895 25.6999L15.9535 25.4459C16.6563 25.1771 17.0645 25.1283 17.2478 25.2909C17.3092 25.3454 17.6588 25.5083 18.025 25.6528C18.6626 25.9046 18.7042 25.9472 19.0106 26.6679L19.3305 27.4203H20.6744L20.9364 26.8046C21.2926 25.9673 21.4032 25.8644 22.3606 25.4793L23.1926 25.1445L24.7177 25.6912L25.6586 24.7507L25.4102 24.0873C25.2736 23.7224 25.1619 23.3302 25.1619 23.2157C25.1619 23.0281 25.3794 22.4858 25.7804 21.6735C25.8697 21.4927 26.2063 21.2486 26.6582 21.0369L27.3913 20.6935L27.3901 19.3865L26.5987 19.0225C25.8367 18.6721 25.7971 18.6328 25.5334 17.967C25.1207 16.9248 25.1124 16.8034 25.4006 16.0331L25.6672 15.3209L24.7333 14.3874L24.0969 14.6293C23.2816 14.939 23.1856 14.935 22.1921 14.5486L21.3628 14.2261L20.6581 12.6427L19.3539 12.6439L18.6357 14.2261ZM15.7007 18.7202C16.0751 17.4328 17.3153 16.1562 18.5876 15.7484C18.9338 15.6374 19.4877 15.5896 20.1753 15.6113C21.4881 15.6527 22.3066 15.9935 23.1729 16.8593C25.7708 19.456 24.3885 23.7729 20.7287 24.4926C18.8386 24.8643 16.7807 23.761 15.908 21.908C15.52 21.0843 15.4274 19.66 15.7007 18.7202Z" fill="#72A62A" />
</svg>