<svg width="38" height="41" viewBox="0 0 38 41" fill="none" xmlns="http://www.w3.org/2000/svg">
<g clip-path="url(#clip0_40_210)">
<path fill-rule="evenodd" clip-rule="evenodd" d="M8.48885 35.2411V35.2384L18.5149 35.1907V35.2411H8.48885Z" fill="#72A62A"/>
<path d="M20.3145 31.7799C20.5258 31.7568 20.7152 31.6287 20.8341 31.4283C21.0024 31.145 21.0024 31.0808 20.8341 30.7976C20.7152 30.5971 20.5258 30.469 20.3145 30.446L6.62558 30.4872C6.10178 30.6322 5.91642 31.086 6.20938 31.5054C6.33935 31.6913 6.52826 31.801 6.71876 31.801L20.3145 31.7799Z" fill="#72A62A"/>
<path d="M20.2267 34.2091C20.5585 34.2091 20.9603 33.8106 20.9603 33.4815C20.9603 33.1539 20.6077 32.833 20.2476 32.833H18.5149H8.48885H6.71876C6.52826 32.833 6.33935 32.9426 6.20938 33.1285C5.91642 33.548 6.10178 34.0017 6.62558 34.1468L20.2267 34.2091Z" fill="#72A62A"/>
<path d="M18.8779 36.6172C19.8161 36.6172 19.9822 36.4016 19.9822 35.1838L18.5149 35.1907V35.2411H8.48885V35.2384L7.02162 35.2454C6.94812 35.6271 7.04788 36.2868 7.76817 36.6172H10.3356H13.5082H18.8779Z" fill="#72A62A"/>
<path d="M8.85688 36.8179C8.8592 37.22 9.46541 38.2271 10.0155 38.7431C10.3259 39.0342 10.9478 39.4356 11.3987 39.636C12.1573 39.9729 12.3133 40 13.5019 40C14.6889 40 14.8457 39.9729 15.5805 39.6415C16.6777 39.1467 17.3153 38.5901 17.7608 37.7384C17.9679 37.3425 18.1655 36.9282 18.2 36.8179C18.249 36.6611 18.3974 36.6172 18.8779 36.6172H13.5082C15.2531 36.6172 16.6809 36.661 16.6809 36.7147C16.6809 36.9574 15.9297 37.8238 15.4658 38.1159C14.5506 38.6924 13.1357 38.8078 12.0726 38.3924C11.5311 38.181 10.6121 37.3611 10.4612 36.9549L10.3356 36.6172H7.76817C7.81407 36.6382 7.8625 36.6579 7.91356 36.6762C8.74739 36.706 8.85649 36.7507 8.85688 36.8179Z" fill="#72A62A"/>
<path fill-rule="evenodd" clip-rule="evenodd" d="M20.3145 30.446C20.0001 30.4116 19.9822 30.3773 19.9822 29.8086C19.9822 29.2285 20.0009 29.1953 20.5211 28.8514C20.8175 28.6555 21.2123 28.2513 21.3985 27.9533C21.6914 27.4847 21.7505 27.2312 21.8361 26.08C22.0308 23.4626 22.4854 22.3569 24.2004 20.3303C26.5311 17.5762 27.0075 16.2989 26.9999 12.8227C26.9959 10.9434 26.9658 10.656 26.6637 9.61192C26.2629 8.2268 25.2331 6.22118 24.386 5.17572C23.4643 4.03817 21.752 2.58494 20.5275 1.90092C18.7664 0.917261 17.0551 0.369358 14.9997 0.131184L13.8687 0L12.3403 0.0932287L11.6067 0.178085C11.2032 0.224871 10.3862 0.393554 9.79101 0.553063C5.54888 1.69015 2.13818 4.72013 0.691005 8.63721C0.123554 10.173 -0.0098425 11.0261 0.000550387 13.0521C0.0165676 16.1628 0.59747 17.7057 2.67666 20.1596C3.31344 20.911 4.00267 21.822 4.20832 22.1839C4.5969 22.8675 5.06531 24.3735 5.06531 24.939V25.2647L5.15579 26.7554L5.31144 27.2769C5.50927 27.9394 6.01827 28.6007 6.58194 28.9274C6.99569 29.1672 7.02162 29.2175 7.02162 29.7799C7.02162 30.3546 7.00645 30.3817 6.62558 30.4872L20.3145 30.446ZM2.03364 9.32524C3.47654 5.08891 7.60753 1.95069 12.2792 1.54188C14.7927 1.32194 16.8533 1.70334 19.1359 2.81107C22.3468 4.36912 24.6577 7.3022 25.3813 10.738C25.5955 11.7548 25.5598 14.3565 25.3175 15.4029C25.0278 16.6528 24.3197 17.9369 23.1971 19.2472C21.9792 20.6688 21.4543 21.4394 21.0439 22.4077C20.656 23.3236 20.349 24.8982 20.349 25.9723C20.349 26.9562 20.0572 27.5588 19.4502 27.8289C19.0786 27.9944 18.3665 28.0168 13.4834 28.0163C8.2031 28.016 7.92005 28.0053 7.54786 27.7925C6.87465 27.4074 6.74223 27.093 6.6361 25.6257C6.52459 24.085 6.2084 22.8122 5.67861 21.7708C5.47393 21.3688 4.71574 20.3249 3.99374 19.4511C1.96212 16.9924 1.5052 15.8181 1.48172 12.9947C1.46852 11.4095 1.58308 10.648 2.03364 9.32524ZM8.48885 29.9853C8.48885 29.7435 8.52614 29.5107 8.57175 29.468C8.61735 29.4253 10.8594 29.4037 13.5542 29.4202L18.4538 29.4502L18.529 30.4249H8.48885V29.9853Z" fill="#72A62A"/>
<path d="M20.2476 32.833C20.015 32.833 19.9822 32.7699 19.9822 32.3245C19.9822 31.8568 20.0087 31.8133 20.3145 31.7799L6.71876 31.801C6.99619 31.801 7.02162 31.8443 7.02162 32.317C7.02162 32.7897 6.99619 32.833 6.71876 32.833H8.48885V32.3935C8.48885 32.1516 8.52553 31.9194 8.5704 31.8774C8.61515 31.8354 10.871 31.801 13.5834 31.801H18.5149V32.833H20.2476Z" fill="#72A62A"/>
<path d="M19.9822 35.1838C19.9822 34.2855 20.0013 34.2091 20.2267 34.2091L6.62558 34.1468C6.99276 34.2485 7.02162 34.2924 7.02162 34.7509V35.2454L8.48885 35.2384V34.2091H18.5149V35.1907L19.9822 35.1838Z" fill="#72A62A"/>
<path fill-rule="evenodd" clip-rule="evenodd" d="M23.8295 9.75848L22.5103 10.2716C20.9208 10.8899 20.7194 10.8972 19.4773 10.3812L18.5058 9.97737L16.996 11.4868L17.3912 12.5425C17.8906 13.8773 17.8888 13.9263 17.2773 15.4916C16.7765 16.7734 16.7485 16.8042 15.5042 17.4306L14.2399 18.0672V20.0273L15.4997 20.6203C16.701 21.1857 16.7799 21.2637 17.1976 22.2972C17.852 23.9158 17.8768 24.2905 17.4061 25.4503L16.9833 26.4915L18.5065 28.0144L19.5628 27.6102C20.6808 27.1825 21.3301 27.1049 21.6217 27.3637C21.7193 27.4503 22.2755 27.7095 22.858 27.9394C23.8722 28.3401 23.9383 28.408 24.4258 29.5547L24.9346 30.7518H27.0724L27.4892 29.7721C28.0559 28.4399 28.2317 28.2763 29.7547 27.6634L31.0782 27.1307L33.5042 28.0006L35.0009 26.5042L34.6058 25.4486C34.3885 24.8681 34.2109 24.244 34.2109 24.0619C34.2109 23.7633 34.5567 22.9005 35.1947 21.608C35.3367 21.3205 35.8722 20.932 36.591 20.5951L37.7571 20.0487L37.7552 17.9692L36.4963 17.3902C35.2842 16.8326 35.2212 16.7701 34.8018 15.7107C34.1453 14.0525 34.1321 13.8594 34.5905 12.6337L35.0145 11.5005L33.529 10.0153L32.5167 10.4C31.2197 10.8929 31.067 10.8865 29.4867 10.2716L28.1675 9.75848L27.0465 7.23928L24.9719 7.24115L23.8295 9.75848ZM19.1606 16.9091C19.7561 14.8607 21.729 12.8295 23.753 12.1806C24.3036 12.0041 25.1847 11.928 26.2784 11.9625C28.3668 12.0284 29.6688 12.5706 31.0468 13.9482C35.1794 18.0799 32.9805 24.9485 27.1589 26.0935C24.1522 26.6849 20.8786 24.9294 19.4904 21.9812C18.8731 20.6705 18.7259 18.4044 19.1606 16.9091Z" fill="#BD2645"/>
<path fill-rule="evenodd" clip-rule="evenodd" d="M19.1606 16.9091C19.7561 14.8607 21.729 12.8295 23.753 12.1806C24.3036 12.0041 25.1847 11.928 26.2784 11.9625C28.3668 12.0284 29.6688 12.5706 31.0468 13.9482C35.1794 18.0799 32.9805 24.9485 27.1589 26.0935C24.1522 26.6849 20.8786 24.9294 19.4904 21.9812C18.8731 20.6705 18.7259 18.4044 19.1606 16.9091ZM23.8702 23.3926C20.1959 21.57 20.2961 16.3289 24.0387 14.5828C25.8335 13.7455 28.0717 14.1775 29.4895 15.6349C31.6686 17.875 31.148 21.6597 28.4424 23.2502C27.7038 23.6842 27.378 23.754 26.0918 23.754C24.99 23.754 24.4077 23.6592 23.8702 23.3926Z" fill="#BD2645"/>
<path d="M24.0387 14.5828C20.2961 16.3289 20.1959 21.57 23.8702 23.3926C24.4077 23.6592 24.99 23.754 26.0918 23.754C27.378 23.754 27.7038 23.6842 28.4424 23.2502C31.148 21.6597 31.6686 17.875 29.4895 15.6349C28.0717 14.1775 25.8335 13.7455 24.0387 14.5828Z" fill="white"/>
</g>
<defs>
<clipPath id="clip0_40_210">
<rect width="38" height="40" fill="white" transform="translate(0 0.0136719)"/>
</clipPath>
</defs>
</svg>
